<svg width="30" height="22" viewBox="0 0 30 22" fill="none" xmlns="http://www.w3.org/2000/svg">
<path d="M29.9293 16.7188C29.9299 16.7129 29.9299 16.7071 29.9293 16.7013L27.8806 6.18C27.8806 6.1725 27.8806 6.165 27.8806 6.1575C27.5643 4.43007 26.6526 2.86809 25.3041 1.74314C23.9556 0.618184 22.2555 0.00139391 20.4993 5.53315e-07H9.48556C7.72449 -0.000676284 6.01958 0.619617 4.67067 1.75179C3.32176 2.88395 2.41524 4.45549 2.11056 6.19L0.0718077 16.7013C0.0712056 16.7071 0.0712056 16.7129 0.0718077 16.7188C-0.0941391 17.661 0.0445679 18.6317 0.46779 19.4898C0.891012 20.3479 1.57672 21.0487 2.42535 21.4906C3.27399 21.9325 4.24137 22.0924 5.18705 21.947C6.13274 21.8017 7.00749 21.3588 7.68431 20.6825L7.72806 20.6362L12.6893 15H17.3143L22.2781 20.6362C22.2918 20.6525 22.3068 20.6675 22.3218 20.6825C23.1653 21.5242 24.3077 21.9979 25.4993 22C26.1562 21.9996 26.8049 21.8554 27.4001 21.5775C27.9953 21.2996 28.5224 20.8948 28.9445 20.3915C29.3665 19.8882 29.6733 19.2986 29.8432 18.6641C30.0131 18.0296 30.0421 17.3656 29.9281 16.7188H29.9293ZM11.9993 9H10.9993V10C10.9993 10.2652 10.894 10.5196 10.7064 10.7071C10.5189 10.8946 10.2645 11 9.99931 11C9.73409 11 9.47974 10.8946 9.2922 10.7071C9.10466 10.5196 8.99931 10.2652 8.99931 10V9H7.99931C7.73409 9 7.47974 8.89464 7.2922 8.70711C7.10466 8.51957 6.99931 8.26522 6.99931 8C6.99931 7.73478 7.10466 7.48043 7.2922 7.29289C7.47974 7.10536 7.73409 7 7.99931 7H8.99931V6C8.99931 5.73478 9.10466 5.48043 9.2922 5.29289C9.47974 5.10536 9.73409 5 9.99931 5C10.2645 5 10.5189 5.10536 10.7064 5.29289C10.894 5.48043 10.9993 5.73478 10.9993 6V7H11.9993C12.2645 7 12.5189 7.10536 12.7064 7.29289C12.894 7.48043 12.9993 7.73478 12.9993 8C12.9993 8.26522 12.894 8.51957 12.7064 8.70711C12.5189 8.89464 12.2645 9 11.9993 9ZM16.9993 8C16.9993 7.73478 17.1047 7.48043 17.2922 7.29289C17.4797 7.10536 17.7341 7 17.9993 7H20.9993C21.2645 7 21.5189 7.10536 21.7064 7.29289C21.894 7.48043 21.9993 7.73478 21.9993 8C21.9993 8.26522 21.894 8.51957 21.7064 8.70711C21.5189 8.89464 21.2645 9 20.9993 9H17.9993C17.7341 9 17.4797 8.89464 17.2922 8.70711C17.1047 8.51957 16.9993 8.26522 16.9993 8ZM27.5456 18.9338C27.3583 19.2034 27.1193 19.4332 26.8425 19.6098C26.5657 19.7864 26.2566 19.9063 25.9331 19.9625C25.5417 20.0309 25.1397 20.0056 24.7601 19.8884C24.3805 19.7713 24.0341 19.5658 23.7493 19.2887L19.9743 15H20.4993C21.776 15.0002 23.0316 14.6744 24.1472 14.0536C25.2628 13.4328 26.2015 12.5375 26.8743 11.4525L27.9668 17.0775C28.0224 17.3994 28.0139 17.7291 27.9416 18.0477C27.8693 18.3663 27.7347 18.6674 27.5456 18.9338Z" fill="url(#paint0_linear_4111_25)"/>
<defs>
<linearGradient id="paint0_linear_4111_25" x1="0.00360107" y1="11" x2="29.9964" y2="11" gradientUnits="userSpaceOnUse">
<stop stop-color="#FC4A1A"/>
<stop offset="1" stop-color="#F7B733"/>
</linearGradient>
</defs>
</svg>
