 <svg width="32" height="28" viewBox="0 0 32 28" fill="none" xmlns="http://www.w3.org/2000/svg">
<g filter="url(#filter0_d_4111_12)">
<path d="M31 15C31 15.2652 30.8946 15.5196 30.7071 15.7071C30.5196 15.8946 30.2652 16 30 16H28V18C28 18.2652 27.8946 18.5196 27.7071 18.7071C27.5196 18.8946 27.2652 19 27 19C26.7348 19 26.4804 18.8946 26.2929 18.7071C26.1054 18.5196 26 18.2652 26 18V16H24C23.7348 16 23.4804 15.8946 23.2929 15.7071C23.1054 15.5196 23 15.2652 23 15C23 14.7348 23.1054 14.4804 23.2929 14.2929C23.4804 14.1054 23.7348 14 24 14H26V12C26 11.7348 26.1054 11.4804 26.2929 11.2929C26.4804 11.1054 26.7348 11 27 11C27.2652 11 27.5196 11.1054 27.7071 11.2929C27.8946 11.4804 28 11.7348 28 12V14H30C30.2652 14 30.5196 14.1054 30.7071 14.2929C30.8946 14.4804 31 14.7348 31 15ZM7 5H9V7C9 7.26522 9.10536 7.51957 9.2929 7.70711C9.48043 7.89464 9.73479 8 10 8C10.2652 8 10.5196 7.89464 10.7071 7.70711C10.8946 7.51957 11 7.26522 11 7V5H13C13.2652 5 13.5196 4.89464 13.7071 4.70711C13.8946 4.51957 14 4.26522 14 4C14 3.73478 13.8946 3.48043 13.7071 3.29289C13.5196 3.10536 13.2652 3 13 3H11V1C11 0.734784 10.8946 0.48043 10.7071 0.292893C10.5196 0.105357 10.2652 0 10 0C9.73479 0 9.48043 0.105357 9.2929 0.292893C9.10536 0.48043 9 0.734784 9 1V3H7C6.73479 3 6.48043 3.10536 6.2929 3.29289C6.10536 3.48043 6 3.73478 6 4C6 4.26522 6.10536 4.51957 6.2929 4.70711C6.48043 4.89464 6.73479 5 7 5ZM23 20H22V19C22 18.7348 21.8946 18.4804 21.7071 18.2929C21.5196 18.1054 21.2652 18 21 18C20.7348 18 20.4804 18.1054 20.2929 18.2929C20.1054 18.4804 20 18.7348 20 19V20H19C18.7348 20 18.4804 20.1054 18.2929 20.2929C18.1054 20.4804 18 20.7348 18 21C18 21.2652 18.1054 21.5196 18.2929 21.7071C18.4804 21.8946 18.7348 22 19 22H20V23C20 23.2652 20.1054 23.5196 20.2929 23.7071C20.4804 23.8946 20.7348 24 21 24C21.2652 24 21.5196 23.8946 21.7071 23.7071C21.8946 23.5196 22 23.2652 22 23V22H23C23.2652 22 23.5196 21.8946 23.7071 21.7071C23.8946 21.5196 24 21.2652 24 21C24 20.7348 23.8946 20.4804 23.7071 20.2929C23.5196 20.1054 23.2652 20 23 20ZM27.4138 6L10 23.4137C9.62497 23.7885 9.11646 23.9991 8.58625 23.9991C8.05605 23.9991 7.54754 23.7885 7.1725 23.4137L4.585 20.8288C4.39924 20.643 4.25188 20.4225 4.15134 20.1798C4.0508 19.9372 3.99905 19.6771 3.99905 19.4144C3.99905 19.1517 4.0508 18.8916 4.15134 18.6489C4.25188 18.4062 4.39924 18.1857 4.585 18L22 0.58625C22.1857 0.400484 22.4062 0.253125 22.6489 0.152587C22.8916 0.052049 23.1517 0.000302315 23.4144 0.000302315C23.6771 0.000302315 23.9372 0.052049 24.1798 0.152587C24.4225 0.253125 24.643 0.400484 24.8288 0.58625L27.4138 3.17125C27.5995 3.35697 27.7469 3.57747 27.8474 3.82015C27.948 4.06283 27.9997 4.32294 27.9997 4.58562C27.9997 4.84831 27.948 5.10842 27.8474 5.3511C27.7469 5.59378 27.5995 5.81428 27.4138 6ZM26 4.58625L23.4138 2L19.4138 6L22 8.58625L26 4.58625Z" fill="url(#paint0_linear_4111_12)"/>
</g>
<defs>
<filter id="filter0_d_4111_12" x="-0.000946045" y="0" width="35.0009" height="32" filterUnits="userSpaceOnUse" color-interpolation-filters="sRGB">
<feFlood flood-opacity="0" result="BackgroundImageFix"/>
<feColorMatrix in="SourceAlpha" type="matrix" values="0 0 0 0 0 0 0 0 0 0 0 0 0 0 0 0 0 0 127 0" result="hardAlpha"/>
<feOffset dy="4"/>
<feGaussianBlur stdDeviation="2"/>
<feComposite in2="hardAlpha" operator="out"/>
<feColorMatrix type="matrix" values="0 0 0 0 0 0 0 0 0 0 0 0 0 0 0 0 0 0 0.25 0"/>
<feBlend mode="normal" in2="BackgroundImageFix" result="effect1_dropShadow_4111_12"/>
<feBlend mode="normal" in="SourceGraphic" in2="effect1_dropShadow_4111_12" result="shape"/>
</filter>
<linearGradient id="paint0_linear_4111_12" x1="3.99905" y1="12" x2="31" y2="12" gradientUnits="userSpaceOnUse">
<stop stop-color="#FC4A1A"/>
<stop offset="1" stop-color="#F7B733"/>
</linearGradient>
</defs>
</svg>
