<svg width="27" height="28" viewBox="0 0 27 28" fill="none" xmlns="http://www.w3.org/2000/svg">
<path d="M11.3826 4.5812C11.3309 4.5295 11.2686 4.48976 11.1999 4.46478C11.1312 4.4398 11.0578 4.43019 10.985 4.43663C10.9122 4.44306 10.8417 4.46539 10.7784 4.50203C10.7151 4.53867 10.6607 4.58873 10.6189 4.6487C9.5641 6.15413 8.99887 7.94803 9.00013 9.7862C9.00105 10.18 9.02735 10.5733 9.07888 10.9637L0.39013 22.8137C0.105736 23.1983 -0.0306888 23.6725 0.00580645 24.1495C0.0423017 24.6264 0.249278 25.0743 0.58888 25.4112L2.37513 27.1974C2.71202 27.537 3.15991 27.744 3.63687 27.7805C4.11383 27.817 4.58799 27.6806 4.97263 27.3962L16.8239 18.7049C17.2138 18.7573 17.6067 18.7844 18.0001 18.7862C19.8376 18.7879 21.631 18.2236 23.1364 17.1699C23.1963 17.1281 23.2464 17.0737 23.283 17.0104C23.3197 16.9472 23.342 16.8766 23.3484 16.8038C23.3549 16.731 23.3453 16.6577 23.3203 16.589C23.2953 16.5203 23.2556 16.4579 23.2039 16.4062L11.3826 4.5812ZM11.7089 17.4912L9.70888 19.4912C9.61695 19.588 9.50657 19.6653 9.38426 19.7188C9.26194 19.7722 9.13017 19.8006 8.9967 19.8023C8.86324 19.8041 8.73078 19.779 8.60714 19.7287C8.4835 19.6784 8.37118 19.6039 8.2768 19.5095C8.18241 19.4152 8.10788 19.3028 8.05759 19.1792C8.0073 19.0555 7.98227 18.9231 7.98398 18.7896C7.98569 18.6562 8.0141 18.5244 8.06754 18.4021C8.12098 18.2798 8.19836 18.1694 8.29513 18.0774L10.2951 16.0774C10.4842 15.8978 10.7359 15.7992 10.9967 15.8025C11.2575 15.8058 11.5066 15.9109 11.691 16.0953C11.8754 16.2797 11.9805 16.5289 11.9838 16.7896C11.9872 17.0504 11.8885 17.3021 11.7089 17.4912ZM25.3839 14.9212C25.3421 14.9814 25.2876 15.0316 25.2242 15.0684C25.1608 15.1052 25.0902 15.1276 25.0172 15.134C24.9442 15.1404 24.8707 15.1308 24.8019 15.1057C24.733 15.0806 24.6706 15.0406 24.6189 14.9887L12.7976 3.16745C12.7457 3.11576 12.7058 3.05329 12.6807 2.98446C12.6556 2.91563 12.6459 2.84213 12.6523 2.76915C12.6588 2.69617 12.6812 2.62549 12.7179 2.56212C12.7547 2.49876 12.805 2.44424 12.8651 2.40245C14.5966 1.19425 16.6981 0.633929 18.8012 0.81966C20.9044 1.00539 22.8751 1.92533 24.368 3.41828C25.861 4.91123 26.7809 6.88195 26.9667 8.98511C27.1524 11.0883 26.5921 13.1897 25.3839 14.9212Z" fill="url(#paint0_linear_4111_219)"/>
<defs>
<linearGradient id="paint0_linear_4111_219" x1="0" y1="14.2856" x2="27.0015" y2="14.2856" gradientUnits="userSpaceOnUse">
<stop stop-color="#FC4A1A"/>
<stop offset="1" stop-color="#F7B733"/>
</linearGradient>
</defs>
</svg>
