<svg width="26" height="28" viewBox="0 0 26 28" fill="none" xmlns="http://www.w3.org/2000/svg">
<path d="M25.115 0.711421C24.9958 0.616944 24.8564 0.551311 24.7076 0.519652C24.5589 0.487993 24.4048 0.491165 24.2575 0.528921L8.2575 4.52892C8.04137 4.58295 7.84947 4.70759 7.71224 4.88309C7.57501 5.05859 7.50032 5.27489 7.5 5.49767V19.2602C6.66571 18.7027 5.66904 18.4401 4.66838 18.5141C3.66772 18.588 2.72047 18.9943 1.97718 19.6683C1.23388 20.3423 0.737169 21.2454 0.565982 22.2341C0.394795 23.2228 0.558949 24.2403 1.03236 25.125C1.50577 26.0097 2.26128 26.7108 3.17882 27.1168C4.09637 27.5229 5.12331 27.6107 6.09646 27.3662C7.06961 27.1217 7.93313 26.559 8.54981 25.7675C9.16648 24.976 9.50093 24.0011 9.5 22.9977V11.2789L23.5 7.77892V15.2602C22.6657 14.7027 21.669 14.4401 20.6684 14.5141C19.6677 14.588 18.7205 14.9943 17.9772 15.6683C17.2339 16.3423 16.7372 17.2454 16.566 18.2341C16.3948 19.2228 16.5589 20.2403 17.0324 21.125C17.5058 22.0097 18.2613 22.7108 19.1788 23.1168C20.0964 23.5229 21.1233 23.6107 22.0965 23.3662C23.0696 23.1217 23.9331 22.559 24.5498 21.7675C25.1665 20.976 25.5009 20.0011 25.5 18.9977V1.49767C25.4997 1.346 25.4648 1.19639 25.3981 1.06018C25.3314 0.923959 25.2346 0.804699 25.115 0.711421Z" fill="url(#paint0_linear_4111_23)"/>
<defs>
<linearGradient id="paint0_linear_4111_23" x1="0.5" y1="13.9999" x2="25.5" y2="13.9999" gradientUnits="userSpaceOnUse">
<stop stop-color="#FC4A1A"/>
<stop offset="1" stop-color="#F7B733"/>
</linearGradient>
</defs>
</svg>
