<svg width="30" height="22" viewBox="0 0 30 22" fill="none" xmlns="http://www.w3.org/2000/svg">
<path d="M7.01495 12.4781C7.01834 12.5459 7.00792 12.6136 6.98432 12.6771C6.96071 12.7407 6.92442 12.7988 6.87765 12.8479C6.83088 12.8971 6.7746 12.9361 6.71225 12.9628C6.6499 12.9895 6.58277 13.0032 6.51495 13.0031H0.999953C0.774247 13.0035 0.555063 12.9274 0.378044 12.7874C0.201025 12.6474 0.0765827 12.4516 0.0249527 12.2319C-0.00719607 12.0815 -0.00571402 11.9258 0.0292928 11.7761C0.0642996 11.6263 0.131966 11.4862 0.227453 11.3656C1.10971 10.1956 2.28032 9.27436 3.62495 8.69187C3.03461 8.15362 2.58184 7.48176 2.30455 6.73254C2.02726 5.98333 1.93353 5.17857 2.03122 4.38568C2.1289 3.5928 2.41516 2.83486 2.866 2.17535C3.31685 1.51584 3.91916 0.973961 4.62249 0.595098C5.32582 0.216234 6.1097 0.0114158 6.90846 -0.00220299C7.70723 -0.0158218 8.49763 0.162155 9.21347 0.516822C9.92931 0.871489 10.5497 1.39252 11.0228 2.03628C11.4959 2.68003 11.8078 3.42777 11.9325 4.21687C11.9485 4.32298 11.9295 4.43145 11.8783 4.52577C11.8271 4.62009 11.7465 4.69509 11.6487 4.73937C10.2617 5.38059 9.08703 6.40517 8.26333 7.69222C7.43963 8.97926 7.00127 10.4751 6.99995 12.0031C6.99995 12.1631 6.99995 12.3206 7.01495 12.4781ZM29.765 11.3644C28.8847 10.1957 27.7168 9.27497 26.375 8.69187C26.9653 8.15362 27.4181 7.48176 27.6954 6.73254C27.9726 5.98333 28.0664 5.17857 27.9687 4.38568C27.871 3.5928 27.5847 2.83486 27.1339 2.17535C26.6831 1.51584 26.0807 0.973961 25.3774 0.595098C24.6741 0.216234 23.8902 0.0114158 23.0914 -0.00220299C22.2927 -0.0158218 21.5023 0.162155 20.7864 0.516822C20.0706 0.871489 19.4502 1.39252 18.9771 2.03628C18.504 2.68003 18.1921 3.42777 18.0675 4.21687C18.0514 4.32298 18.0704 4.43145 18.1216 4.52577C18.1728 4.62009 18.2534 4.69509 18.3512 4.73937C19.7382 5.38059 20.9129 6.40517 21.7366 7.69222C22.5603 8.97926 22.9986 10.4751 23 12.0031C23 12.1631 23 12.3206 22.985 12.4781C22.9816 12.5459 22.992 12.6136 23.0156 12.6771C23.0392 12.7407 23.0755 12.7988 23.1223 12.8479C23.169 12.8971 23.2253 12.9361 23.2877 12.9628C23.35 12.9895 23.4171 13.0032 23.485 13.0031H29C29.2257 13.0035 29.4448 12.9274 29.6219 12.7874C29.7989 12.6474 29.9233 12.4516 29.975 12.2319C30.0073 12.0812 30.0058 11.9252 29.9706 11.7752C29.9353 11.6252 29.8672 11.4849 29.7712 11.3644H29.765ZM18.64 16.7619C19.6356 15.9993 20.3674 14.944 20.7322 13.7441C21.0971 12.5442 21.0769 11.2601 20.6743 10.0724C20.2717 8.88459 19.5071 7.85282 18.4878 7.12208C17.4686 6.39133 16.246 5.99834 14.9918 5.99834C13.7377 5.99834 12.5151 6.39133 11.4958 7.12208C10.4766 7.85282 9.71192 8.88459 9.30935 10.0724C8.90677 11.2601 8.88651 12.5442 9.25141 13.7441C9.6163 14.944 10.348 15.9993 11.3437 16.7619C9.57687 17.5274 8.10153 18.8385 7.1337 20.5031C7.04592 20.6552 6.99972 20.8276 6.99973 21.0032C6.99974 21.1787 7.04596 21.3512 7.13376 21.5032C7.22155 21.6552 7.34782 21.7815 7.49987 21.8692C7.65192 21.957 7.8244 22.0032 7.99995 22.0031H22C22.1755 22.0032 22.348 21.957 22.5 21.8692C22.6521 21.7815 22.7784 21.6552 22.8661 21.5032C22.9539 21.3512 23.0002 21.1787 23.0002 21.0032C23.0002 20.8276 22.954 20.6552 22.8662 20.5031C21.8963 18.8374 20.4182 17.5262 18.6487 16.7619H18.64Z" fill="url(#paint0_linear_4111_27)"/>
<defs>
<linearGradient id="paint0_linear_4111_27" x1="0.00189209" y1="11.0001" x2="29.9981" y2="11.0001" gradientUnits="userSpaceOnUse">
<stop stop-color="#FC4A1A"/>
<stop offset="1" stop-color="#F7B733"/>
</linearGradient>
</defs>
</svg>
